<?xml version="1.0" encoding="utf-8"?><!DOCTYPE svg PUBLIC "-//W3C//DTD SVG 1.1//EN" "http://www.w3.org/Graphics/SVG/1.1/DTD/svg11.dtd"><svg version="1.1" xmlns="http://www.w3.org/2000/svg" xmlns:xlink="http://www.w3.org/1999/xlink" x="0px" y="0px" width="200px" height="200px" viewBox="0 0 200 200" enable-background="new 0 0 200 200" xml:space="preserve"><g><path fill="#FFC000" d="M144.136,107.645c-1.268-3.947-3.143-7.499-5.617-10.457C115.101,69.202,60.407,62.6,62.25,118.832,l-15.646-15.461c-0.4,1.889-17.803,42.447,9.934,66.958c0,0,8,6.5,19.5,6.5c0,0,11.612-0.381,19.25-8.25,c8.25-8.5,10.512-19.159,10.75-20.25c0.238-1.092,3.573,15.34,3.573,15.34s21.585,1.353,31.415-19.629l0.295-0.705,c2.418-6.076,3.811-12.668,4.757-20.244c1.21-17.762-3.052-36.584-17.39-56.019c-18.932-25.674-46.982-35.309-46.982-35.309,C68.941,20.654,56.881,16.658,56.881,16.658s6.59,10.697,7.111,14.65c0,0,1.197,1.794-4.81,5.684,c-6.01,3.889-11.118,9.044-13.013,22.368c0,0-0.033,1.241-2.885,3.346C40.433,64.812,24.99,72.812,24.99,72.812,s5.028,10.078,9.977,11.138c0,0,1.137,1.562,2.593,2.702l0.179,0.123c11.226-15.226,29.463-24.909,49.807-24.387,C115.043,63.093,137.74,82.212,144.136,107.645"/><path fill="#E2A100" d="M76.034,176.829c0,0,23.917-1.667,30.251-42.167l6.166,27c0,0,19.49-0.203,29.908-21.343l0.178-0.35,c-0.375,1.141-0.779,2.262-1.219,3.365l-0.295,0.705c-9.83,20.981-31.416,19.629-31.416,19.629s-3.334-16.432-3.572-15.34,c-0.238,1.091-2.5,11.75-10.75,20.25C87.647,176.448,76.034,176.829,76.034,176.829"/><path fill="#E2A100" d="M52.592,166.399c-22.024-24.679-6.358-61.237-5.979-63.028l15.646,15.461,c-0.727-22.188,7.348-34.593,18.831-39.761l0.002,0.102c-22.629,13.421-16.129,47.328-16.129,47.328l-17.167-17.172,c0,0-15.37,32.735,4.797,57.068"/><path fill="#E2A100" d="M98.787,183.329c27.667-0.417,40.887-13.604,42.584-15.167c20.084-18.5,8.839-32.384,5.173-41.083,c0.761,1.806-8.513,67.915-70.875,52.596C75.668,179.675,81.094,183.596,98.787,183.329z"/><path fill="#E2A100" d="M105.037,61.579C79.77,52.646,60.975,65,60.975,65c-18.5,10-23.236,21.774-23.236,21.774,c11.226-15.226,29.463-24.909,49.807-24.387c27.498,0.705,50.194,19.824,56.591,45.257,C144.136,107.645,140.037,73.954,105.037,61.579z"/><path fill="#FFFFFF" d="M84.089,121.609c-1.24,0.871-2.83,1.306-4.77,1.306c-1.44,0-2.685-0.15-3.735-0.45s-2.025-0.9-2.925-1.8,l2.55-2.55c0.58,0.58,1.225,0.97,1.935,1.17c0.709,0.199,1.455,0.3,2.235,0.3c0.76,0,1.41-0.136,1.95-0.405s0.81-0.675,0.81-1.215,c0-0.42-0.13-0.75-0.39-0.99c-0.26-0.24-0.68-0.39-1.26-0.449l-1.2-0.121l-1.26-0.119c-1.48-0.141-2.61-0.561-3.39-1.26,c-0.78-0.7-1.17-1.74-1.17-3.121c0-1.56,0.585-2.779,1.755-3.66c1.17-0.879,2.595-1.319,4.275-1.319c1.3,0,2.445,0.14,3.435,0.42,c0.99,0.28,1.834,0.75,2.535,1.41l-2.4,2.431c-0.42-0.381-0.94-0.65-1.56-0.811s-1.31-0.24-2.07-0.24,c-0.74,0-1.295,0.146-1.665,0.436c-0.37,0.289-0.555,0.645-0.555,1.064c0,0.34,0.115,0.635,0.345,0.885s0.655,0.405,1.275,0.465,l1.23,0.121l1.23,0.119c1.54,0.141,2.7,0.605,3.48,1.395c0.78,0.791,1.17,1.855,1.17,3.195,C85.95,119.475,85.33,120.74,84.089,121.609z"/><path fill="#FFFFFF" d="M98.219,122.734v-1.439c-0.5,0.52-1.09,0.92-1.77,1.199c-0.68,0.281-1.39,0.421-2.13,0.421,c-1.541,0-2.771-0.46-3.69-1.38c-0.6-0.6-1.016-1.26-1.245-1.98c-0.23-0.72-0.345-1.539-0.345-2.46v-9.989h3.9v9.449,c0,0.98,0.255,1.7,0.765,2.16c0.51,0.461,1.115,0.689,1.815,0.689c0.72,0,1.335-0.229,1.845-0.689c0.51-0.46,0.765-1.18,0.765-2.16,v-9.449h3.899v15.629H98.219z"/><path fill="#FFFFFF" d="M112.62,122.915c-0.86,0-1.695-0.13-2.506-0.39c-0.81-0.26-1.555-0.695-2.234-1.306,c-0.681-0.61-1.226-1.44-1.635-2.489c-0.41-1.051-0.615-2.326-0.615-3.826s0.205-2.774,0.615-3.824,c0.409-1.051,0.954-1.875,1.635-2.475c0.68-0.601,1.425-1.03,2.234-1.291c0.811-0.26,1.646-0.39,2.506-0.39,c1.08,0,2.04,0.171,2.88,0.511s1.6,0.869,2.279,1.59l-2.64,2.64c-0.42-0.44-0.82-0.755-1.2-0.945s-0.82-0.284-1.319-0.284,c-0.921,0-1.661,0.34-2.221,1.02c-0.58,0.72-0.87,1.87-0.87,3.449c0,1.602,0.29,2.761,0.87,3.48c0.56,0.68,1.3,1.02,2.221,1.02,c0.499,0,0.939-0.094,1.319-0.285c0.38-0.189,0.78-0.504,1.2-0.944l2.64,2.61C116.418,122.205,114.699,122.915,112.62,122.915z"/><path fill="#FFFFFF" d="M129.779,122.734v-9.539c0-0.961-0.25-1.66-0.75-2.101c-0.5-0.439-1.101-0.659-1.8-0.659,c-0.7,0-1.296,0.225-1.785,0.674c-0.49,0.451-0.735,1.146-0.735,2.086v9.539h-3.899v-21.359h3.899v7.17,c1.06-1.08,2.311-1.62,3.75-1.62c1.66,0,2.945,0.524,3.855,1.575c0.909,1.05,1.364,2.426,1.364,4.125v10.109H129.779z"/><rect x="149.183" y="120.515" width="2.221" height="2.22"/><path d="M156.984,103.265v-1.89h1.89v1.89H156.984z M157.164,122.734v-14.459h1.53v14.459H157.164z"/><path d="M174.938,118.805c-0.25,0.98-0.726,1.82-1.425,2.52c-1.061,1.061-2.4,1.591-4.021,1.591s-2.96-0.53-4.02-1.591,c-0.7-0.699-1.175-1.539-1.425-2.52c-0.251-0.979-0.375-2.08-0.375-3.3s0.124-2.319,0.375-3.3c0.25-0.98,0.725-1.82,1.425-2.52,c1.06-1.061,2.399-1.591,4.02-1.591s2.96,0.53,4.021,1.591c0.699,0.699,1.175,1.539,1.425,2.52s0.375,2.08,0.375,3.3,S175.188,117.825,174.938,118.805z M173.543,112.686c-0.161-0.801-0.511-1.471-1.051-2.011c-0.82-0.819-1.819-1.229-3-1.229,c-1.18,0-2.18,0.41-3,1.229c-0.54,0.54-0.89,1.21-1.05,2.011c-0.16,0.799-0.24,1.739-0.24,2.819s0.08,2.021,0.24,2.819,c0.16,0.801,0.51,1.471,1.05,2.011c0.82,0.82,1.82,1.229,3,1.229c1.181,0,2.18-0.409,3-1.229c0.54-0.54,0.89-1.21,1.051-2.011,c0.159-0.799,0.239-1.739,0.239-2.819S173.703,113.484,173.543,112.686z"/></g></svg>